<?xml version="1.0" standalone="no"?>
<!DOCTYPE svg PUBLIC "-//W3C//DTD SVG 20010904//EN"
 "http://www.w3.org/TR/2001/REC-SVG-20010904/DTD/svg10.dtd">
<svg version="1.0" xmlns="http://www.w3.org/2000/svg"
 width="640.000000pt" height="640.000000pt" viewBox="0 0 640.000000 640.000000"
 preserveAspectRatio="xMidYMid meet">
<metadata>
Created by potrace 1.14, written by Peter Selinger 2001-2017
</metadata>
<g transform="translate(0.000000,640.000000) scale(0.100000,-0.100000)"
fill="#000000" stroke="none">
<path d="M3545 5536 c-22 -7 -58 -22 -80 -32 -22 -10 -43 -18 -46 -18 -21 -2
-139 -109 -139 -126 0 -5 -4 -10 -9 -10 -5 0 -26 -39 -47 -87 -36 -83 -38 -94
-38 -188 1 -105 2 -115 27 -180 9 -22 34 -92 57 -155 22 -63 44 -122 47 -130
3 -8 7 -17 8 -20 1 -3 4 -12 7 -20 3 -8 12 -35 19 -60 16 -51 72 -139 120
-189 92 -93 189 -132 334 -134 90 -2 107 1 170 27 162 67 247 162 298 333 22
75 16 212 -13 278 -5 11 -41 110 -80 220 -94 267 -100 278 -201 381 -42 44
-147 103 -195 110 -92 13 -202 13 -239 0z"/>
<path d="M1690 4573 c-96 -19 -103 -23 -179 -80 -103 -79 -176 -191 -188 -291
-17 -141 0 -243 60 -344 17 -28 30 -66 32 -94 6 -72 14 -102 47 -187 24 -62
43 -90 92 -140 35 -34 80 -70 102 -80 21 -11 53 -25 69 -33 46 -22 74 -27 150
-28 183 -3 297 50 400 184 68 89 91 152 98 272 4 57 -18 228 -38 308 -25 94
-131 309 -178 361 -49 54 -154 122 -221 143 -73 23 -162 27 -246 9z"/>
<path d="M5638 4365 c-2 -2 -23 -5 -48 -8 -115 -15 -207 -61 -292 -148 -84
-85 -90 -100 -143 -346 -3 -13 -7 -33 -9 -45 -16 -78 -101 -334 -151 -453 -53
-126 -165 -338 -233 -440 -47 -72 -146 -210 -157 -220 -6 -5 -34 -38 -61 -72
-56 -72 -252 -267 -334 -333 -30 -25 -57 -47 -60 -50 -18 -21 -263 -186 -300
-204 -8 -3 -37 -20 -65 -35 -27 -16 -79 -43 -115 -60 -36 -18 -73 -36 -82 -41
-10 -6 -24 -10 -32 -10 -8 0 -16 -4 -18 -9 -6 -15 -326 -119 -448 -145 -14 -3
-47 -11 -75 -16 -53 -12 -72 -15 -145 -24 -25 -3 -56 -8 -69 -11 -117 -24
-582 -23 -704 1 -12 2 -42 7 -67 10 -25 3 -62 10 -83 15 -21 6 -50 12 -65 14
-37 6 -57 10 -127 30 -33 9 -71 19 -85 22 -14 2 -34 8 -45 13 -11 4 -99 34
-195 65 -96 31 -188 63 -205 69 -16 7 -46 18 -65 25 -502 171 -482 165 -570
167 -76 2 -172 -16 -190 -35 -3 -4 -22 -15 -44 -26 -86 -44 -183 -194 -209
-325 -33 -157 10 -322 110 -427 39 -41 153 -120 153 -106 0 4 4 3 8 -3 4 -5
81 -34 172 -63 91 -28 174 -56 185 -61 20 -9 92 -32 110 -36 6 -1 24 -8 40
-15 17 -6 35 -13 40 -14 6 -2 55 -18 110 -36 55 -18 105 -34 110 -35 6 -1 39
-12 75 -23 35 -12 107 -33 160 -47 52 -14 106 -29 120 -34 27 -9 194 -49 238
-56 15 -3 59 -11 97 -19 39 -8 93 -17 120 -20 28 -3 66 -8 85 -10 199 -29 638
-23 865 10 17 2 53 7 80 11 28 3 52 8 55 9 3 2 24 6 46 9 47 7 62 10 129 26
28 6 59 13 70 16 60 12 81 17 90 22 6 4 15 7 20 8 80 13 409 130 570 203 119
54 342 168 355 181 7 7 43 29 60 37 48 21 364 248 422 303 15 14 48 43 74 65
98 84 280 271 379 390 28 33 52 62 55 65 3 3 21 26 40 53 19 26 43 57 54 70
31 37 206 305 206 316 0 5 3 11 8 13 16 7 222 416 222 441 0 9 3 17 8 19 8 4
26 49 93 243 50 145 94 305 114 418 3 15 11 54 18 85 13 57 14 166 3 212 -3
14 -9 38 -12 55 -3 16 -19 59 -36 94 -55 116 -171 210 -299 241 -41 10 -126
19 -131 15z"/>
</g>
</svg>
