<?xml version="1.0" encoding="UTF-8"?>
<svg id="_레이어_2" data-name="레이어 2" xmlns="http://www.w3.org/2000/svg" viewBox="0 0 300.57 66.37">
  <defs>
    <style>
      .cls-1, .cls-2 {
        fill: #fff;
      }

      .cls-2 {
        stroke: #fff;
        stroke-miterlimit: 10;
        stroke-width: 3px;
      }

      .cls-3 {
        fill: #2c2c2c;
      }
    </style>
  </defs>
  <g id="_레이어_1-2" data-name="레이어 1">
    <g>
      <path class="cls-2" d="m19.11,25.73c-1.56-1.62-3.69-4.24-6.39-7.85-1.89-2.54-3.23-4.22-4.01-5.05-.78-.83-1.86-1.79-3.22-2.89-1.82-1.41-2.93-2.41-3.35-3.02-.42-.6-.63-1.24-.63-1.9,0-.31.3-.73.91-1.25.6-.52,1.16-.78,1.67-.78,1.19,0,2.76.9,4.72,2.7,1.95,1.8,3.72,3.69,5.3,5.68,4.82,6.11,7.81,9.53,8.96,10.25,1.15-1.27,2.36-2.57,3.63-3.9,6.45-6.68,10.37-11.02,11.78-13.01,1.54-2.15,3.08-3.22,4.6-3.22.59,0,1.04.28,1.38.83.33.56.5,1.12.5,1.68,0,.53-.74,1.66-2.21,3.4-1.48,1.74-5.38,5.9-11.7,12.48-3.05,3.16-4.83,5.21-5.36,6.12-.53.92-1.04,3.58-1.52,8-.49,4.41-.83,7.87-1.03,10.37-.12,1.52-.27,2.38-.47,2.58-.2.19-.61.4-1.23.6-.63.21-1.12.31-1.49.31-1.46,0-2.2-1.23-2.2-3.69,0-1.52.31-4.23.94-8.12.59-3.73.88-6.23.88-7.5,0-1.11-.15-2.06-.44-2.84Z"/>
      <path class="cls-2" d="m49.93,47.61c-2.68,0-4.88-1.02-6.62-3.05-1.74-2.03-2.61-4.54-2.61-7.53,0-5.04,1.69-10,5.08-14.9,3.39-4.89,7.45-7.34,12.17-7.34,3.12,0,5.66,1.2,7.6,3.6,1.94,2.4,2.92,5.26,2.92,8.58,0,5.08-2.01,9.79-6.02,14.12s-8.19,6.5-12.52,6.5Zm-4.07-11.34c0,1.97.41,3.58,1.25,4.83.83,1.25,1.93,1.88,3.3,1.88,2.91,0,5.83-1.6,8.76-4.79s4.39-6.74,4.39-10.65c0-2.4-.56-4.35-1.68-5.84-1.12-1.49-2.63-2.24-4.53-2.24-3.15,0-5.84,1.93-8.1,5.79-2.26,3.86-3.38,7.53-3.38,11.03Z"/>
      <path class="cls-2" d="m95.98,33.4c-2.5,4.2-5.06,7.45-7.68,9.76-2.62,2.3-5.05,3.46-7.29,3.46-1.29,0-2.6-.75-3.94-2.26-1.34-1.5-2.01-3.82-2.01-6.94,0-2.56.62-6.33,1.85-11.31,1.04-4.16,1.55-7.08,1.55-8.76.57-1.17,1.45-1.76,2.67-1.76.82,0,1.47.29,1.96.86.49.58.73,1.18.73,1.8,0,1.37-.48,3.31-1.44,5.83-1.82,4.9-2.72,9.11-2.72,12.63,0,3.2.74,4.8,2.23,4.8,1.89,0,4.31-1.61,7.24-4.83s5.44-7.71,7.53-13.48c.82-2.3,1.49-3.8,2.01-4.5.52-.69,1.22-1.04,2.09-1.04,1.33,0,1.99.88,1.99,2.64,0,.22-.19.93-.56,2.14-1.17,4.28-1.76,8.32-1.76,12.13,0,4.57.75,7.53,2.26,8.88.78.72,1.17,1.31,1.17,1.76,0,.55-.4,1.04-1.19,1.49-.79.45-1.51.67-2.15.67-1.37,0-2.47-1.02-3.31-3.05-.84-2.03-1.26-5.03-1.26-8.99v-.97c0-.31,0-.63.03-.97Z"/>
      <path class="cls-2" d="m131.84,23.62c-1.02,0-2.12.66-3.33,1.99-1.2,1.33-3.03,4.31-5.49,8.94-3.24,6.21-5.34,9.75-6.28,10.61-.95.86-1.73,1.29-2.36,1.29-2.3,0-3.46-1.11-3.46-3.34,0-.94.16-2.27.47-3.98,1.07-5.9,1.61-12.12,1.61-18.66,0-.74.32-1.57.95-2.48.63-.91,1.23-1.36,1.8-1.36,1.02,0,1.74.31,2.17.94.43.63.64,1.89.64,3.78s-.59,6.04-1.76,12.19c-.39,2.03-.59,3.32-.59,3.87,0,.31.08.47.23.47.29,0,1.65-2.33,4.07-7,2.44-4.75,4.58-8.09,6.42-10.02,1.84-1.93,3.86-2.9,6.06-2.9,1.76,0,3.19.8,4.29,2.4,1.1,1.6,1.91,4.52,2.42,8.76.55,4.82,1.04,7.83,1.48,9.01.44,1.18,1.14,1.77,2.09,1.77.6,0,1.37-.21,2.29-.64.16-.08.27-.12.35-.12.84,0,1.26.49,1.26,1.46,0,.86-.58,1.77-1.73,2.74-1.15.97-2.54,1.45-4.16,1.45s-2.94-.66-3.85-1.98-1.63-4.84-2.15-10.56c-.55-5.74-1.7-8.61-3.46-8.61Z"/>
      <path class="cls-2" d="m172.39,35.54c-.23-.18-.89.37-1.96,1.64-1.78,2.09-4.05,3.95-6.81,5.57-2.76,1.62-5.33,2.43-7.69,2.43-1.76,0-3.13-.55-4.13-1.66-1-1.1-1.49-2.63-1.49-4.58,0-3.03,1.14-6.4,3.43-10.12s5.48-6.97,9.59-9.74c4.11-2.77,7.71-4.16,10.8-4.16,1.62,0,3.05.47,4.28,1.41.29.23.55.43.76.59.35.25.68.77,1,1.54.31.77.47,1.39.47,1.86,0,.29-.11.74-.32,1.35-1.19,3.24-2,5.93-2.43,8.06-.43,2.13-.9,5.71-1.41,10.75-.47,4.53-.98,8.02-1.52,10.46-.55,2.44-1.53,4.8-2.96,7.09-1.43,2.29-3.13,4-5.13,5.14s-4.04,1.71-6.15,1.71c-3.65,0-7.26-1.26-10.81-3.78s-5.33-4.54-5.33-6.06c0-.96.36-1.44,1.08-1.44.35,0,1.4.58,3.13,1.73,4.59,3.07,8.72,4.6,12.39,4.6,3.2,0,5.64-1.71,7.31-5.13,1.67-3.42,2.81-8.53,3.41-15.32.14-1.54.3-2.85.5-3.93Zm-.06-16.08c-1.66,0-3.74.86-6.23,2.58-2.49,1.72-4.91,4.24-7.25,7.56-2.34,3.32-3.52,6.1-3.52,8.35,0,.76.24,1.36.72,1.8.48.44,1.01.66,1.6.66,1.74,0,4.01-.9,6.81-2.7,2.8-1.8,5.21-4.29,7.24-7.49s3.03-5.7,3.03-7.51c0-2.17-.8-3.25-2.4-3.25Z"/>
      <path class="cls-2" d="m220.11,8.36c-.06.02-.59.01-1.6-.03-1.01-.04-2.04.06-3.09.29-1.05.25-1.99.41-2.81.47-.57.04-1.18.12-1.85.23-.84.16-2.5.24-4.98.26-3.73.06-6.08.31-7.05.76-.97.45-1.51,1.38-1.63,2.78-.1,1.07-.3,2.26-.62,3.54-.96,3.85-1.44,6.41-1.44,7.68l.44.03c.92.06,2.77-.07,5.57-.38,2.79-.31,4.88-.62,6.27-.94,2.85-.68,5.03-1.03,6.53-1.03,2.44,0,3.66.65,3.66,1.96,0,1.6-.82,2.58-2.45,2.94-1.63.36-5.03.83-10.21,1.39-6.33.7-9.7,1.33-10.12,1.89-.42.56-.86,2.35-1.33,5.38-.47,3.03-.7,4.96-.7,5.8v.32c.1.98.72,1.53,1.88,1.67l.53.03c1.07.06,2.35-.03,3.84-.26l5.62-.82c2.09-.29,4.21-.63,6.36-1.03,2.68-.57,4.38-.85,5.1-.85.55,0,1.16.23,1.83.69.67.46,1.01,1.19,1.01,2.18,0,.72-.18,1.22-.53,1.49-1.99.88-4.56,1.37-7.71,1.46-2.71.1-6.95.56-12.71,1.38-2.91.43-4.82.64-5.74.64-2.29,0-3.72-.18-4.29-.54-.58-.36-.92-1.25-1.04-2.65l-.12-1v-.12c0-.31.18-.95.53-1.9.49-1.39,1.06-4.02,1.71-7.91.65-3.89,1.08-6.96,1.27-9.23.1-.78.25-1.73.47-2.84.86-4.67,1.29-8.36,1.29-11.07,0-.14-.2-.5-.59-1.08-.1-.12-.17-.21-.21-.29-.14-.45-.26-.82-.38-1.11-.14-.27-.21-.6-.21-.97v-.29c0-.43.26-.81.79-1.14.53-.33,1.04-.5,1.52-.5h.09c.82,0,1.76.06,2.81.18h.12c.45,0,2.62-.19,6.5-.56,3.89-.37,8.53-1.02,13.92-1.93.57-.1.91-.15,1.03-.15l.44-.03c1.52-.1,2.57.05,3.15.45.58.4.93,1.18,1.07,2.33,0,.55-.25,1.07-.76,1.58s-.91.78-1.2.82Z"/>
      <path class="cls-2" d="m247.86,33.4c-2.5,4.2-5.06,7.45-7.68,9.76-2.62,2.3-5.05,3.46-7.29,3.46-1.29,0-2.6-.75-3.94-2.26-1.34-1.5-2.01-3.82-2.01-6.94,0-2.56.62-6.33,1.85-11.31,1.04-4.16,1.55-7.08,1.55-8.76.57-1.17,1.45-1.76,2.67-1.76.82,0,1.47.29,1.96.86.49.58.73,1.18.73,1.8,0,1.37-.48,3.31-1.44,5.83-1.82,4.9-2.72,9.11-2.72,12.63,0,3.2.74,4.8,2.23,4.8,1.89,0,4.31-1.61,7.24-4.83s5.44-7.71,7.53-13.48c.82-2.3,1.49-3.8,2.01-4.5.52-.69,1.22-1.04,2.09-1.04,1.33,0,1.99.88,1.99,2.64,0,.22-.19.93-.56,2.14-1.17,4.28-1.76,8.32-1.76,12.13,0,4.57.75,7.53,2.26,8.88.78.72,1.17,1.31,1.17,1.76,0,.55-.4,1.04-1.19,1.49-.79.45-1.51.67-2.15.67-1.37,0-2.47-1.02-3.31-3.05-.84-2.03-1.26-5.03-1.26-8.99v-.97c0-.31,0-.63.03-.97Z"/>
      <path class="cls-2" d="m283.72,23.62c-1.02,0-2.12.66-3.33,1.99-1.2,1.33-3.03,4.31-5.49,8.94-3.24,6.21-5.34,9.75-6.28,10.61-.95.86-1.73,1.29-2.36,1.29-2.3,0-3.46-1.11-3.46-3.34,0-.94.16-2.27.47-3.98,1.07-5.9,1.61-12.12,1.61-18.66,0-.74.32-1.57.95-2.48s1.24-1.36,1.8-1.36c1.02,0,1.74.31,2.17.94.43.63.64,1.89.64,3.78s-.59,6.04-1.76,12.19c-.39,2.03-.59,3.32-.59,3.87,0,.31.08.47.23.47.29,0,1.65-2.33,4.07-7,2.44-4.75,4.58-8.09,6.42-10.02s3.86-2.9,6.06-2.9c1.76,0,3.19.8,4.29,2.4,1.1,1.6,1.91,4.52,2.42,8.76.55,4.82,1.04,7.83,1.48,9.01.44,1.18,1.14,1.77,2.09,1.77.61,0,1.37-.21,2.29-.64.16-.08.27-.12.35-.12.84,0,1.26.49,1.26,1.46,0,.86-.58,1.77-1.73,2.74s-2.54,1.45-4.16,1.45-2.94-.66-3.85-1.98-1.63-4.84-2.15-10.56c-.55-5.74-1.7-8.61-3.46-8.61Z"/>
    </g>
    <path class="cls-1" d="m54.56,42.86c14.8,0,14.82-23,0-23s-14.82,23,0,23h0Z"/>
    <g id="_스마일" data-name="스마일">
      <path class="cls-3" d="m48.32,25.92c.05.09.1.18.14.28l-.15-.36c.07.17.12.35.15.54l-.05-.4c.01.08.02.16.02.24,0,.21.04.4.13.58.06.19.16.35.31.48.14.15.3.25.48.31.18.09.37.14.58.13l.4-.05c.25-.07.47-.2.66-.39l.23-.3c.14-.23.2-.49.2-.76,0-.23-.04-.45-.08-.68-.01-.09-.03-.18-.06-.27-.06-.21-.15-.41-.24-.6-.04-.09-.08-.18-.14-.26-.09-.17-.22-.32-.39-.42-.14-.13-.31-.22-.51-.27-.2-.06-.4-.07-.6-.03-.2,0-.39.07-.56.18l-.3.23c-.19.19-.31.41-.39.66l-.05.4c0,.27.07.52.2.76h0Z"/>
      <path class="cls-3" d="m53.99,22.56l.46,1.27c.05.2.14.37.27.51.11.16.25.29.42.39.17.11.36.17.56.18.2.04.4.04.6-.03l.36-.15c.23-.13.4-.31.54-.54l.15-.36c.07-.27.07-.53,0-.8l-.46-1.27c-.05-.2-.14-.37-.27-.51-.11-.16-.25-.29-.42-.39-.17-.11-.36-.17-.56-.18-.2-.04-.4-.04-.6.03l-.36.15c-.23.13-.4.31-.54.54l-.15.36c-.07.27-.07.53,0,.8h0Z"/>
      <path class="cls-3" d="m45.49,34.32c1.9.6,3.68,1.35,5.7,1.44s3.88-.35,5.63-1.18c3.26-1.54,5.65-4.78,6.29-8.32.14-.8-.22-1.62-1.05-1.85-.73-.2-1.7.25-1.85,1.05-.51,2.84-2.26,5.3-4.91,6.53-1.32.61-2.8.85-4.25.76-1.66-.1-3.21-.84-4.78-1.33-1.85-.58-2.64,2.32-.8,2.89h0Z"/>
    </g>
  </g>
</svg>