<?xml version="1.0" encoding="UTF-8"?>
<svg id="_레이어_2" data-name="레이어 2" xmlns="http://www.w3.org/2000/svg" viewBox="0 0 301.92 83.1">
  <defs>
    <style>
      .cls-1 {
        font-family: SegoePrint, 'Segoe Print';
        font-size: 60px;
        stroke: #fff;
        stroke-miterlimit: 10;
        stroke-width: 3px;
      }

      .cls-1, .cls-2 {
        fill: #fff;
      }

      .cls-3 {
        fill: #bd85f9;
      }

      .cls-4 {
        letter-spacing: -.06em;
      }
    </style>
  </defs>
  <g id="_레이어_1-2" data-name="레이어 1">
    <text class="cls-1" transform="translate(1.5 51.89)"><tspan class="cls-4" x="0" y="0">Y</tspan><tspan x="36.74" y="0">oungEun</tspan></text>
    <g id="_레이어_3" data-name="레이어 3">
      <path class="cls-2" d="m160.9,48.16c9.01,0,9.02-14,0-14s-9.02,14,0,14h0Z"/>
      <path class="cls-2" d="m168.35,43.02c12.23,0,12.25-19,0-19s-12.25,19,0,19h0Z"/>
    </g>
    <path class="cls-2" d="m55.32,48.6c14.8,0,14.82-23,0-23s-14.82,23,0,23h0Z"/>
    <g id="_스마일" data-name="스마일">
      <path class="cls-3" d="m49.08,31.67c.05.09.1.18.14.28l-.15-.36c.07.17.12.35.15.54l-.05-.4c.01.08.02.16.02.24,0,.21.04.4.13.58.06.19.16.35.31.48.14.15.3.25.48.31.18.09.37.14.58.13l.4-.05c.25-.07.47-.2.66-.39l.23-.3c.14-.23.2-.49.2-.76,0-.23-.04-.45-.08-.68-.01-.09-.03-.18-.06-.27-.06-.21-.15-.41-.24-.6-.04-.09-.08-.18-.14-.26-.09-.17-.22-.32-.39-.42-.14-.13-.31-.22-.51-.27-.2-.06-.4-.07-.6-.03-.2,0-.39.07-.56.18l-.3.23c-.19.19-.31.41-.39.66l-.05.4c0,.27.07.52.2.76h0Z"/>
      <path class="cls-3" d="m54.75,28.3l.46,1.27c.05.2.14.37.27.51.11.16.25.29.42.39.17.11.36.17.56.18.2.04.4.04.6-.03l.36-.15c.23-.13.4-.31.54-.54l.15-.36c.07-.27.07-.53,0-.8l-.46-1.27c-.05-.2-.14-.37-.27-.51-.11-.16-.25-.29-.42-.39-.17-.11-.36-.17-.56-.18-.2-.04-.4-.04-.6.03l-.36.15c-.23.13-.4.31-.54.54l-.15.36c-.07.27-.07.53,0,.8h0Z"/>
      <path class="cls-3" d="m46.25,40.06c1.9.6,3.68,1.35,5.7,1.44s3.88-.35,5.63-1.18c3.26-1.54,5.65-4.78,6.29-8.32.14-.8-.22-1.62-1.05-1.85-.73-.2-1.7.25-1.85,1.05-.51,2.84-2.26,5.3-4.91,6.53-1.32.61-2.8.85-4.25.76-1.66-.1-3.21-.84-4.78-1.33-1.85-.58-2.64,2.32-.8,2.89h0Z"/>
    </g>
  </g>
</svg>