<svg xmlns="http://www.w3.org/2000/svg" viewBox="0 0 104.63 104.63"><defs><style>.cls-1{fill:#ff8b8b;}</style></defs><title>qr</title><g id="Layer_2" data-name="Layer 2"><g id="Layer_1-2" data-name="Layer 1"><path class="cls-1" d="M54.81,5h-5V0h5Zm49.82-5V34.88H69.76V0Zm-5,5H74.74V29.89H99.65ZM64.77,0h-5V10h5ZM10,24.91H24.91V10H10ZM44.84,10h-5v5h5Zm10,0h-5v5h5Zm39.86,0h-15V24.91h15ZM34.88,34.88H0V0H34.88Zm-5-5V5H5V29.89Zm34.87,5v-5h-5v5Zm24.92,5v5h5v-5Zm5,19.93h5v-5h5v-10h-10ZM5,49.82H0v10H5Zm10,5h5v-5h5v-5h10v5h5v-5h5v-15h-5v10H19.93v5H15v-5H0v5H5v5H15Zm10-5v5h10v-5ZM10,54.81v5h5v-5Zm10,0v5h5v-5Zm19.93,0h-5v5h-10v5h15ZM5,64.77h5v-5H5Zm10,0h5v-5H15Zm89.68,0v-5h-5v5Zm-10,0h-15v15h-10v5h10v10h-5v5h-5v5H89.69v-10h-5v-5h5v-10h-5v-10h5v5h5v5h10v-10h-10ZM0,69.76H34.88v34.87H0Zm5,5V99.65H29.9V74.74Zm54.81,0h5v-5h-5Zm-10,5h5v-10h-5Zm-5,0v-10h5v-5h10v-5h5v10h5v-15H89.69v-5h-10v-5h-5v5h-5v-5h5v-5H59.79v5h5v10h-5v-10h-5v-15h5v-5h5V15h-5v5h-5v5h-5v-5h-5v10h5V49.82h-10v5h10v5h-5v5h-5V84.7h10v-5Zm19.93,0h-5v5h5Zm29.9,5v5h5v-5Zm-69.76-5H10v15H24.91Zm49.83,15v-5h-10v5h-5v-10h-10v5h-10v14.94h5v-10h5v10h10v-5h10v-5Zm24.91,0h5v-5h-5Zm-5,10h10v-5h-5v-5h-5Z"/></g></g></svg>