<svg xmlns="http://www.w3.org/2000/svg" viewBox="0 0 41.51 39.51"><defs><style>.cls-1,.cls-3{fill:#663c2e;}.cls-1{stroke:#000;}.cls-1,.cls-2{stroke-linecap:round;stroke-linejoin:round;stroke-width:2px;}.cls-2{fill:none;stroke:#fff;opacity:0.5;}</style></defs><title>hershey2</title><g id="Layer_2" data-name="Layer 2"><g id="Layer_2-2" data-name="Layer 2"><path class="cls-1" d="M19.14,1C20,14.23,4,19.71,1.69,28c-.2.74-.34,1.41-.45,2.05H40.19C37.54,18.29,19.14,1,19.14,1Z"/><path class="cls-1" d="M1.24,30.05c-1.16,6.68,2.25,8,2.16,8.43,0,0,34,.06,34.08,0,2.9-1.92,3.5-4.93,2.71-8.43Z"/><path class="cls-2" d="M10.73,23.2a33.86,33.86,0,0,0,7.66-7.81"/><path class="cls-3" d="M2.47,29a8.75,8.75,0,0,0-.34,2.09l36.5.24.78-.05A8.39,8.39,0,0,0,38.86,29Z"/></g></g></svg>