<svg xmlns="http://www.w3.org/2000/svg" viewBox="0 0 13.66 9.15"><title>montblanc</title><g id="Layer_2" data-name="Layer 2"><g id="Layer_1-2" data-name="Layer 1"><path d="M.38,8.28C.58,7.8,3,1.52,3.7,0h.12C4.55,1.19,6.33,4.13,6.7,4.74,7.17,4,8.86,1.22,9.5.19h.11c.83,1.78,3.24,7.22,3.57,7.88L10.75,9.15c-.38-1-1.52-4-1.65-4.33C9,5,7.42,7.4,6.52,8.66H6.4C5.48,7.27,4.22,5.23,4,4.87,3.82,5.49,3,8.59,2.74,9.15Z"/><polyline points="2.74 9.15 0 9.15 0.38 8.28"/><polyline points="10.75 9.15 13.66 9.15 13.18 8.07"/></g></g></svg>